# xmcd
#
# Track frame offsets:
#	150
#	18074
#	32998
#	42898
#	55347
#	67750
#	80669
#	93209
#	110292
#	120684
#	134291
#	144499
#	159049
#	173749
#	189701
#
# Disc length: 2658 seconds
#
# Revision: 1
# Processed by: cddbd v1.5.2PL0 Copyright (c) Steve Scherf et al.
# Submitted via: audiograbber 1.83.01
#
DISCID=ba0a600f
DTITLE=Elvis Presley - Sunfly Gold
DYEAR=1900
DGENRE=
TTITLE0=Suspicious Minds
TTITLE1=Can't Help Falling in Love (With You)
TTITLE2=All Shook Up
TTITLE3=Hound Dog
TTITLE4=Heartbreak Hotel
TTITLE5=The Wonder Of You
TTITLE6=Jailhouse Rock
TTITLE7=Always On Mind
TTITLE8=Blue Suede Shoes
TTITLE9=Love Me Tender
TTITLE10=Return To Sender
TTITLE11=Moody Blue
TTITLE12=A Little Less Conversation
TTITLE13=It's Now Or Never
TTITLE14=(Let Me Be Your) Teddy Bear
EXTD=
EXTT0=
EXTT1=
EXTT2=
EXTT3=
EXTT4=
EXTT5=
EXTT6=
EXTT7=
EXTT8=
EXTT9=
EXTT10=
EXTT11=
EXTT12=
EXTT13=
EXTT14=
PLAYORDER=
